<svg viewBox="0 0 400 400" xmlns="http://www.w3.org/2000/svg" role="img" aria-label="Slimmetjie hartseer">
  <g stroke="#3A2A1A" stroke-width="6" stroke-linejoin="round" stroke-linecap="round">
    <rect x="150" y="300" width="34" height="70" rx="16" fill="#D6A15B"/>
    <rect x="216" y="300" width="34" height="70" rx="16" fill="#D6A15B"/>
    <rect x="146" y="356" width="42" height="22" rx="10" fill="#4A3826"/>
    <rect x="212" y="356" width="42" height="22" rx="10" fill="#4A3826"/>
    <ellipse cx="200" cy="250" rx="78" ry="86" fill="#D6A15B"/>
    <ellipse cx="200" cy="270" rx="48" ry="58" fill="#FFFFFF"/>
    <path d="M128 250 q72 26 144 0" fill="none" stroke="#8A5A2B" stroke-width="14"/>
    <path d="M170 178 L160 300" stroke="#EF476F" stroke-width="14" fill="none"/>
    <path d="M230 178 L240 300" stroke="#EF476F" stroke-width="14" fill="none"/>
    <rect x="96" y="216" width="32" height="74" rx="16" fill="#D6A15B"/>
    <rect x="272" y="216" width="32" height="74" rx="16" fill="#D6A15B"/>
    <ellipse cx="200" cy="130" rx="86" ry="78" fill="#D6A15B"/>
    <!-- ore afwaarts (hartseer) -->
    <ellipse cx="116" cy="150" rx="30" ry="16" fill="#D6A15B" transform="rotate(35 116 150)"/>
    <ellipse cx="284" cy="150" rx="30" ry="16" fill="#D6A15B" transform="rotate(-35 284 150)"/>
    <path d="M170 66 q-14 -44 6 -56" fill="none" stroke="#4A3826" stroke-width="10"/>
    <path d="M230 66 q14 -44 -6 -56" fill="none" stroke="#4A3826" stroke-width="10"/>
    <ellipse cx="200" cy="150" rx="56" ry="50" fill="#FFFFFF"/>
    <path d="M168 118 L150 182" stroke="#8A5A2B" stroke-width="9" fill="none"/>
    <path d="M232 118 L250 182" stroke="#8A5A2B" stroke-width="9" fill="none"/>
    <!-- oë met afwaartse wenkbroue -->
    <circle cx="176" cy="140" r="16" fill="#FFFFFF" stroke-width="4"/>
    <circle cx="224" cy="140" r="16" fill="#FFFFFF" stroke-width="4"/>
    <circle cx="176" cy="144" r="8" fill="#2B2140" stroke="none"/>
    <circle cx="224" cy="144" r="8" fill="#2B2140" stroke="none"/>
    <path d="M162 124 q14 -8 26 -2" fill="none" stroke="#3A2A1A" stroke-width="5"/>
    <path d="M212 122 q12 -6 26 2" fill="none" stroke="#3A2A1A" stroke-width="5"/>
    <!-- traan -->
    <path d="M176 156 q-4 14 0 18 q6 -2 4 -14" fill="#6EC6FF" stroke="#3A8FD0" stroke-width="2"/>
    <ellipse cx="200" cy="166" rx="10" ry="7" fill="#3A2A1A" stroke="none"/>
    <!-- afwaartse mond (steeds sag) -->
    <path d="M180 192 q20 -16 40 0" fill="none" stroke="#3A2A1A" stroke-width="6"/>
  </g>
</svg>
